# xmcd
#
# Track frame offsets: 
#        182
#        21060
#        47512
#        64125
#        90280
#        106525
#        129480
#        144412
#        164062
#        175367
#
# Disc length: 2592 seconds
#
# Revision: 4
# Processed by: cddbd v1.5.2PL0 Copyright (c) Steve Scherf et al.
# Submitted via: ExactAudioCopyFreeDBPlugin 1.0
#
DISCID=7a0a1e0a
DTITLE=Calvin Russell - Calvin Russell
DYEAR=1996
DGENRE=Country
TTITLE0=Let The Music Play
TTITLE1=Nothin' Can Save Me
TTITLE2=I Want To Change The World
TTITLE3=Desperation
TTITLE4=Lovin' You
TTITLE5=Mr. Mudd And Mr. Gold
TTITLE6=My Love Is So
TTITLE7=Time Flies
TTITLE8=Cut The Silver Strings
TTITLE9=Drive By
EXTD=YEAR: 1996
EXTT0=
EXTT1=
EXTT2=
EXTT3=
EXTT4=
EXTT5=
EXTT6=
EXTT7=
EXTT8=
EXTT9=
PLAYORDER=
